HIERARCHY
ROOT mixamorig:Hips
{
	OFFSET 0.000000 201.639420 0.000000
	CHANNELS 6 Xposition Yposition Zposition Xrotation Yrotation Zrotation
	JOINT mixamorig:Spine
	{
		OFFSET 0.006200 19.524994 -2.481800
		CHANNELS 3 Xrotation Yrotation Zrotation
		JOINT mixamorig:Spine1
		{
			OFFSET -0.000900 22.835007 -2.825400
			CHANNELS 3 Xrotation Yrotation Zrotation
			JOINT mixamorig:Spine2
			{
				OFFSET -0.020600 26.552490 -3.193300
				CHANNELS 3 Xrotation Yrotation Zrotation
				JOINT mixamorig:Neck
				{
					OFFSET -0.060000 30.701813 1.352200
					CHANNELS 3 Xrotation Yrotation Zrotation
					JOINT mixamorig:Head
					{
						OFFSET -0.087200 22.547607 3.670900
						CHANNELS 3 Xrotation Yrotation Zrotation
						JOINT mixamorig:HeadTop_End
						{
							OFFSET -0.830600 40.355194 7.893500
							CHANNELS 3 Xrotation Yrotation Zrotation
							End Site
							{
								OFFSET 0.000000 30.592346 0.000000
							}
						}
						JOINT mixamorig:RightEye
						{
							OFFSET -6.302100 18.118591 16.197100
							CHANNELS 3 Xrotation Yrotation Zrotation
							End Site
							{
								OFFSET 0.000000 30.592346 0.000000
							}
						}
						JOINT mixamorig:LeftEye
						{
							OFFSET 6.741500 18.382690 16.401899
							CHANNELS 3 Xrotation Yrotation Zrotation
							End Site
							{
								OFFSET 0.000000 30.592346 0.000000
							}
						}
					}
				}
				JOINT mixamorig:LeftShoulder
				{
					OFFSET 11.924900 18.230499 1.425400
					CHANNELS 3 Xrotation Yrotation Zrotation
					JOINT mixamorig:LeftArm
					{
						OFFSET 25.435989 -0.697632 -5.229300
						CHANNELS 3 Xrotation Yrotation Zrotation
						JOINT mixamorig:LeftForeArm
						{
							OFFSET 54.684776 0.000000 0.000000
							CHANNELS 3 Xrotation Yrotation Zrotation
							JOINT mixamorig:LeftHand
							{
								OFFSET 55.098175 0.000000 0.000000
								CHANNELS 3 Xrotation Yrotation Zrotation
								JOINT mixamorig:LeftHandMiddle1
								{
									OFFSET 23.369751 0.000000 0.000000
									CHANNELS 3 Xrotation Yrotation Zrotation
									JOINT mixamorig:LeftHandMiddle2
									{
										OFFSET 6.378677 0.000000 0.000000
										CHANNELS 3 Xrotation Yrotation Zrotation
										JOINT mixamorig:LeftHandMiddle3
										{
											OFFSET 6.148331 0.000000 0.000000
											CHANNELS 3 Xrotation Yrotation Zrotation
											JOINT mixamorig:LeftHandMiddle4
											{
												OFFSET 6.582504 0.000000 0.000000
												CHANNELS 3 Xrotation Yrotation Zrotation
												End Site
												{
													OFFSET -1.168900 6.395691 1.028606
												}
											}
										}
									}
								}
								JOINT mixamorig:LeftHandThumb1
								{
									OFFSET 7.235672 -3.848206 5.434273
									CHANNELS 3 Xrotation Yrotation Zrotation
									JOINT mixamorig:LeftHandThumb2
									{
										OFFSET 6.568451 -3.792297 3.792300
										CHANNELS 3 Xrotation Yrotation Zrotation
										JOINT mixamorig:LeftHandThumb3
										{
											OFFSET 6.063080 -3.500519 3.500518
											CHANNELS 3 Xrotation Yrotation Zrotation
											JOINT mixamorig:LeftHandThumb4
											{
												OFFSET 4.793182 -2.767334 2.767349
												CHANNELS 3 Xrotation Yrotation Zrotation
												End Site
												{
													OFFSET 0.101639 6.054260 1.275483
												}
											}
										}
									}
								}
								JOINT mixamorig:LeftHandIndex1
								{
									OFFSET 23.101074 -0.309540 4.992809
									CHANNELS 3 Xrotation Yrotation Zrotation
									JOINT mixamorig:LeftHandIndex2
									{
										OFFSET 6.226883 0.000000 0.000000
										CHANNELS 3 Xrotation Yrotation Zrotation
										JOINT mixamorig:LeftHandIndex3
										{
											OFFSET 6.094330 0.000000 0.000000
											CHANNELS 3 Xrotation Yrotation Zrotation
											JOINT mixamorig:LeftHandIndex4
											{
												OFFSET 5.482605 0.000000 0.000000
												CHANNELS 3 Xrotation Yrotation Zrotation
												End Site
												{
													OFFSET -1.427902 5.233032 0.797164
												}
											}
										}
									}
								}
								JOINT mixamorig:LeftHandRing1
								{
									OFFSET 22.299240 0.021149 -3.964172
									CHANNELS 3 Xrotation Yrotation Zrotation
									JOINT mixamorig:LeftHandRing2
									{
										OFFSET 6.321869 0.000000 0.000000
										CHANNELS 3 Xrotation Yrotation Zrotation
										JOINT mixamorig:LeftHandRing3
										{
											OFFSET 5.899796 0.000000 0.000000
											CHANNELS 3 Xrotation Yrotation Zrotation
											JOINT mixamorig:LeftHandRing4
											{
												OFFSET 6.517899 0.000000 0.000000
												CHANNELS 3 Xrotation Yrotation Zrotation
												End Site
												{
													OFFSET -1.637299 6.232208 0.980890
												}
											}
										}
									}
								}
								JOINT mixamorig:LeftHandPinky1
								{
									OFFSET 20.463791 -0.302338 -8.562233
									CHANNELS 3 Xrotation Yrotation Zrotation
									JOINT mixamorig:LeftHandPinky2
									{
										OFFSET 6.908646 0.000000 0.000000
										CHANNELS 3 Xrotation Yrotation Zrotation
										JOINT mixamorig:LeftHandPinky3
										{
											OFFSET 4.622849 0.000000 0.000000
											CHANNELS 3 Xrotation Yrotation Zrotation
											JOINT mixamorig:LeftHandPinky4
											{
												OFFSET 5.216080 0.000000 0.000000
												CHANNELS 3 Xrotation Yrotation Zrotation
												End Site
												{
													OFFSET -0.606308 5.116241 0.814926
												}
											}
										}
									}
								}
							}
						}
					}
				}
				JOINT mixamorig:RightShoulder
				{
					OFFSET -12.001300 18.284088 1.348900
					CHANNELS 3 Xrotation Yrotation Zrotation
					JOINT mixamorig:RightArm
					{
						OFFSET -25.308500 -0.751312 -5.164599
						CHANNELS 3 Xrotation Yrotation Zrotation
						JOINT mixamorig:RightForeArm
						{
							OFFSET -54.684429 0.000000 0.000000
							CHANNELS 3 Xrotation Yrotation Zrotation
							JOINT mixamorig:RightHand
							{
								OFFSET -55.150291 0.000000 0.000000
								CHANNELS 3 Xrotation Yrotation Zrotation
								JOINT mixamorig:RightHandMiddle1
								{
									OFFSET -23.317566 0.000000 0.000000
									CHANNELS 3 Xrotation Yrotation Zrotation
									JOINT mixamorig:RightHandMiddle2
									{
										OFFSET -6.378403 0.000000 0.000000
										CHANNELS 3 Xrotation Yrotation Zrotation
										JOINT mixamorig:RightHandMiddle3
										{
											OFFSET -6.148193 0.000000 0.000000
											CHANNELS 3 Xrotation Yrotation Zrotation
											JOINT mixamorig:RightHandMiddle4
											{
												OFFSET -6.583389 0.000000 0.000000
												CHANNELS 3 Xrotation Yrotation Zrotation
												End Site
												{
													OFFSET 1.171692 6.395905 1.029786
												}
											}
										}
									}
								}
								JOINT mixamorig:RightHandThumb1
								{
									OFFSET -7.190521 -3.860474 5.435846
									CHANNELS 3 Xrotation Yrotation Zrotation
									JOINT mixamorig:RightHandThumb2
									{
										OFFSET -6.567429 -3.791718 3.791708
										CHANNELS 3 Xrotation Yrotation Zrotation
										JOINT mixamorig:RightHandThumb3
										{
											OFFSET -6.062469 -3.500153 3.500166
											CHANNELS 3 Xrotation Yrotation Zrotation
											JOINT mixamorig:RightHandThumb4
											{
												OFFSET -4.792618 -2.767029 2.767022
												CHANNELS 3 Xrotation Yrotation Zrotation
												End Site
												{
													OFFSET -0.100327 6.053253 1.276754
												}
											}
										}
									}
								}
								JOINT mixamorig:RightHandIndex1
								{
									OFFSET -23.048981 -0.310791 4.992554
									CHANNELS 3 Xrotation Yrotation Zrotation
									JOINT mixamorig:RightHandIndex2
									{
										OFFSET -6.227539 0.000000 0.000000
										CHANNELS 3 Xrotation Yrotation Zrotation
										JOINT mixamorig:RightHandIndex3
										{
											OFFSET -6.095047 0.000000 0.000000
											CHANNELS 3 Xrotation Yrotation Zrotation
											JOINT mixamorig:RightHandIndex4
											{
												OFFSET -5.484772 0.000000 0.000000
												CHANNELS 3 Xrotation Yrotation Zrotation
												End Site
												{
													OFFSET 1.420593 5.237305 0.797056
												}
											}
										}
									}
								}
								JOINT mixamorig:RightHandRing1
								{
									OFFSET -22.246323 0.020569 -3.963762
									CHANNELS 3 Xrotation Yrotation Zrotation
									JOINT mixamorig:RightHandRing2
									{
										OFFSET -6.322128 0.000000 0.000000
										CHANNELS 3 Xrotation Yrotation Zrotation
										JOINT mixamorig:RightHandRing3
										{
											OFFSET -5.900024 0.000000 0.000000
											CHANNELS 3 Xrotation Yrotation Zrotation
											JOINT mixamorig:RightHandRing4
											{
												OFFSET -6.518356 0.000000 0.000000
												CHANNELS 3 Xrotation Yrotation Zrotation
												End Site
												{
													OFFSET 1.636398 6.232697 0.982186
												}
											}
										}
									}
								}
								JOINT mixamorig:RightHandPinky1
								{
									OFFSET -20.411011 -0.303314 -8.561701
									CHANNELS 3 Xrotation Yrotation Zrotation
									JOINT mixamorig:RightHandPinky2
									{
										OFFSET -6.907349 0.000000 0.000000
										CHANNELS 3 Xrotation Yrotation Zrotation
										JOINT mixamorig:RightHandPinky3
										{
											OFFSET -4.623840 0.000000 0.000000
											CHANNELS 3 Xrotation Yrotation Zrotation
											JOINT mixamorig:RightHandPinky4
											{
												OFFSET -5.218353 0.000000 0.000000
												CHANNELS 3 Xrotation Yrotation Zrotation
												End Site
												{
													OFFSET 0.602097 5.118835 0.816273
												}
											}
										}
									}
								}
							}
						}
					}
				}
			}
		}
	}
	JOINT mixamorig:LeftUpLeg
	{
		OFFSET 18.168400 -13.561905 -0.039000
		CHANNELS 3 Xrotation Yrotation Zrotation
		JOINT mixamorig:LeftLeg
		{
			OFFSET 0.577358 -80.825211 -3.695000
			CHANNELS 3 Xrotation Yrotation Zrotation
			JOINT mixamorig:LeftFoot
			{
				OFFSET -0.577356 -83.370262 -6.520700
				CHANNELS 3 Xrotation Yrotation Zrotation
				JOINT mixamorig:LeftToeBase
				{
					OFFSET 0.750401 -20.798306 25.135401
					CHANNELS 3 Xrotation Yrotation Zrotation
					JOINT mixamorig:LeftToe_End
					{
						OFFSET -0.000500 0.001200 19.917799
						CHANNELS 3 Xrotation Yrotation Zrotation
						End Site
						{
							OFFSET 0.000000 19.917805 0.000000
						}
					}
				}
			}
		}
	}
	JOINT mixamorig:RightUpLeg
	{
		OFFSET -18.162500 -13.585098 -0.041000
		CHANNELS 3 Xrotation Yrotation Zrotation
		JOINT mixamorig:RightLeg
		{
			OFFSET -0.595024 -80.945297 -3.631900
			CHANNELS 3 Xrotation Yrotation Zrotation
			JOINT mixamorig:RightFoot
			{
				OFFSET 0.595024 -83.218193 -6.561200
				CHANNELS 3 Xrotation Yrotation Zrotation
				JOINT mixamorig:RightToeBase
				{
					OFFSET -0.753601 -20.807106 25.115000
					CHANNELS 3 Xrotation Yrotation Zrotation
					JOINT mixamorig:RightToe_End
					{
						OFFSET 0.000299 0.001700 19.918200
						CHANNELS 3 Xrotation Yrotation Zrotation
						End Site
						{
							OFFSET 0.000000 19.918203 0.000000
						}
					}
				}
			}
		}
	}
}
MOTION
Frames: 6
Frame Time: 0.033333
5.840989 199.232620 -4.693548 4.173166 -3.631990 -0.210565 0.210131 0.300663 0.057136 0.606746 0.530162 -0.102801 0.603439 0.533738 -0.108503 -12.836597 -1.455356 2.650065 8.608447 3.082819 -2.686568 -0.000000 0.000000 0.000000 -0.000000 0.000000 0.000000 -0.000000 0.000000 0.000000 1.634966 -11.470475 -9.527192 3.406324 -14.356185 -65.318622 0.000004 -12.567527 0.000004 0.058839 -1.643519 -7.068623 2.299904 8.323853 -25.569267 1.499755 3.915420 -41.904601 0.477373 2.318223 -23.268622 -0.000001 0.000004 -0.000001 0.699784 -6.020107 19.223953 18.380708 26.578602 -0.616679 3.250155 -0.944583 4.233440 0.000000 -0.000000 0.000003 0.273658 3.900000 -23.517753 0.892912 3.110596 -32.025913 0.330665 1.942125 -19.323310 -0.000002 0.000001 -0.000001 2.940432 8.272168 -35.169163 1.089133 3.403769 -35.478205 0.536780 2.451634 -24.696130 -0.000002 -0.000001 0.000002 3.676121 12.782468 -45.929262 0.671182 2.724708 -27.671828 0.091558 1.032805 -10.132049 -0.000001 0.000005 -0.000000 2.155150 14.735817 10.257673 -3.970647 3.432371 66.663903 0.000005 7.639240 0.000005 9.551701 0.451070 8.964557 -0.963944 -0.531698 21.240220 0.934612 -2.800511 36.904649 0.561662 -2.219105 28.403649 0.000002 -0.000003 -0.000001 -13.474975 -11.536715 -4.945311 13.666575 -20.582669 -6.820322 3.159623 -3.783148 -22.593736 0.000003 0.000000 -0.000001 0.247492 -3.053841 20.231625 0.589427 -2.269652 29.112636 0.134659 -1.112968 13.797195 -0.000000 0.000000 0.000000 -1.476428 -1.978349 38.439478 0.363690 -1.805940 22.771192 0.322847 -1.705399 21.437737 -0.000001 0.000000 0.000003 -2.587518 -1.061552 39.965616 0.610954 -2.307855 29.651723 0.129333 -1.091040 13.520037 0.000000 -0.000002 -0.000001 -12.615451 11.814151 10.378242 10.506373 5.133636 2.112981 -1.445663 0.426989 -9.863842 0.152848 0.000266 -0.156730 0.000000 0.000001 -0.000000 -11.612790 -8.365388 -8.535338 5.601609 1.181584 -2.787956 1.791942 -0.183572 10.584825 0.039543 -0.000031 0.059276 -0.000000 -0.000000 0.000000 
5.625950 199.295822 -4.811902 4.011198 -3.634572 -0.245787 0.197465 0.295828 0.052509 0.555909 0.521091 -0.133439 0.552718 0.523671 -0.139619 -12.746822 -1.454304 2.631063 9.408043 3.125588 -2.617677 -0.000000 -0.000000 -0.000000 -0.000000 -0.000000 -0.000000 -0.000000 -0.000000 -0.000000 1.597698 -11.563550 -9.591495 4.198496 -15.025235 -64.692273 -0.000011 -13.051107 -0.000017 0.660249 -1.839775 -7.984389 2.341085 8.429874 -25.431832 1.497503 3.912909 -41.871635 0.475344 2.313500 -23.218449 -0.000001 -0.000000 0.000000 0.699748 -6.020113 19.223926 18.520661 26.565165 -0.698190 3.246265 -1.038579 4.289754 0.000002 0.000002 0.000001 0.337326 4.103231 -23.425218 0.891200 3.107854 -31.994170 0.336147 1.957679 -19.484557 -0.000002 -0.000003 0.000003 2.953173 8.302853 -35.033181 1.095383 3.412515 -35.583653 0.535086 2.447956 -24.656583 -0.000000 0.000003 -0.000001 3.626611 12.764880 -45.730326 0.668915 2.720379 -27.624147 0.089635 1.021953 -10.024444 0.000001 0.000001 0.000000 2.085681 14.924332 10.706968 -4.175879 3.346635 66.275819 -0.000002 7.571127 -0.000026 10.121056 0.582166 8.612319 -0.761053 -1.073936 21.327705 0.926323 -2.789452 36.734673 0.558958 -2.214094 28.333771 0.000000 -0.000002 -0.000001 -13.490632 -11.548492 -5.259889 13.666572 -20.582676 -6.820331 3.206459 -4.253508 -22.179108 0.000002 -0.000002 0.000002 0.174570 -3.253520 19.245620 0.589433 -2.269655 29.112629 0.187678 -1.310085 16.304066 -0.000000 -0.000002 -0.000005 -1.072352 -2.489265 38.421590 0.360129 -1.797431 22.657783 0.318145 -1.693390 21.279268 -0.000001 -0.000002 -0.000003 -2.341225 -1.134912 39.552314 0.614018 -2.313218 29.727528 0.129176 -1.090399 13.511873 0.000001 -0.000003 -0.000001 -12.295556 11.788621 10.331422 10.126912 5.236014 2.254761 -1.217809 0.410495 -9.887164 0.135940 0.000190 -0.136782 -0.000000 -0.000000 -0.000000 -11.137388 -8.354480 -8.313109 5.011911 1.239384 -2.904153 2.087867 -0.292727 10.656447 -0.000033 -0.000003 0.000001 -0.000000 0.000000 0.000000 
5.466246 199.357071 -4.927970 3.816401 -3.698865 -0.222777 0.169477 0.317302 0.053130 0.511369 0.555629 -0.149995 0.508118 0.557001 -0.156049 -12.568406 -1.447527 2.637434 10.197542 3.163033 -2.584844 -0.000000 0.000000 -0.000000 -0.000000 0.000000 -0.000000 -0.000000 0.000000 -0.000000 1.604992 -11.385831 -9.553345 4.329750 -15.662795 -64.423027 -0.000005 -12.874972 -0.000018 1.693029 -1.937945 -8.457197 2.486426 8.732135 -25.419674 1.496298 3.911576 -41.853989 0.476273 2.315667 -23.241546 -0.000001 0.000000 -0.000001 0.699755 -6.020109 19.223955 19.074611 26.512464 -1.026322 3.271092 -0.981155 3.963637 0.000002 -0.000002 0.000000 0.460220 4.491399 -23.662349 0.883094 3.094848 -31.844196 0.339548 1.967241 -19.583710 -0.000000 -0.000001 -0.000004 3.090055 8.505090 -34.940362 1.098176 3.416397 -35.630262 0.533258 2.443976 -24.613772 -0.000001 0.000000 -0.000001 3.603262 12.761694 -45.581319 0.673748 2.729597 -27.725806 0.090002 1.024032 -10.045313 0.000000 0.000001 0.000002 2.087503 14.855921 10.815231 -4.515512 3.403575 66.314600 -0.000001 7.533709 0.000018 10.827174 0.054057 8.057263 -0.702550 -1.215804 21.259771 0.924244 -2.786664 36.691872 0.558024 -2.212361 28.309432 0.000001 0.000003 -0.000001 -13.495561 -11.552059 -5.371134 13.666570 -20.582676 -6.820324 3.162459 -4.141714 -22.215038 0.000003 -0.000003 -0.000003 0.246065 -3.262784 18.902303 0.589422 -2.269642 29.112650 0.172158 -1.255821 15.610698 0.000001 -0.000001 0.000002 -0.941528 -2.664831 38.529258 0.358954 -1.794606 22.620046 0.313729 -1.682000 21.129368 -0.000002 0.000001 0.000000 -2.260391 -1.124638 39.408160 0.612401 -2.310402 29.687605 0.130089 -1.094184 13.559641 0.000000 -0.000002 -0.000000 -11.914246 11.950278 10.344199 9.698807 5.169752 2.188671 -0.978554 0.394129 -9.773313 0.148942 0.000295 -0.168467 -0.000000 0.000000 -0.000000 -10.880143 -8.418142 -8.279685 4.801654 1.211648 -2.888470 2.214118 -0.180286 10.581049 -0.000059 0.000003 -0.000001 0.000000 -0.000000 -0.000000 
5.466246 199.357071 -4.927970 3.816401 -3.698865 -0.222777 0.169477 0.317302 0.053130 0.511369 0.555629 -0.149995 0.508118 0.557001 -0.156049 -12.568406 -1.447527 2.637434 10.197542 3.163033 -2.584844 -0.000000 0.000000 -0.000000 -0.000000 0.000000 -0.000000 -0.000000 0.000000 -0.000000 1.604992 -11.385831 -9.553345 4.329750 -15.662795 -64.423027 -0.000005 -12.874972 -0.000018 1.693029 -1.937945 -8.457197 2.486426 8.732135 -25.419674 1.496298 3.911576 -41.853989 0.476273 2.315667 -23.241546 -0.000001 0.000000 -0.000001 0.699755 -6.020109 19.223955 19.074611 26.512464 -1.026322 3.271092 -0.981155 3.963637 0.000002 -0.000002 0.000000 0.460220 4.491399 -23.662349 0.883094 3.094848 -31.844196 0.339548 1.967241 -19.583710 -0.000000 -0.000001 -0.000004 3.090055 8.505090 -34.940362 1.098176 3.416397 -35.630262 0.533258 2.443976 -24.613772 -0.000001 0.000000 -0.000001 3.603262 12.761694 -45.581319 0.673748 2.729597 -27.725806 0.090002 1.024032 -10.045313 0.000000 0.000001 0.000002 2.087503 14.855921 10.815231 -4.515512 3.403575 66.314600 -0.000001 7.533709 0.000018 10.827174 0.054057 8.057263 -0.702550 -1.215804 21.259771 0.924244 -2.786664 36.691872 0.558024 -2.212361 28.309432 0.000001 0.000003 -0.000001 -13.495561 -11.552059 -5.371134 13.666570 -20.582676 -6.820324 3.162459 -4.141714 -22.215038 0.000003 -0.000003 -0.000003 0.246065 -3.262784 18.902303 0.589422 -2.269642 29.112650 0.172158 -1.255821 15.610698 0.000001 -0.000001 0.000002 -0.941528 -2.664831 38.529258 0.358954 -1.794606 22.620046 0.313729 -1.682000 21.129368 -0.000002 0.000001 0.000000 -2.260391 -1.124638 39.408160 0.612401 -2.310402 29.687605 0.130089 -1.094184 13.559641 0.000000 -0.000002 -0.000000 -11.914246 11.950278 10.344199 9.698807 5.169752 2.188671 -0.978554 0.394129 -9.773313 0.148942 0.000295 -0.168467 -0.000000 0.000000 -0.000000 -10.880143 -8.418142 -8.279685 4.801654 1.211648 -2.888470 2.214118 -0.180286 10.581049 -0.000059 0.000003 -0.000001 0.000000 -0.000000 -0.000000 
5.466246 199.357071 -4.927970 3.816401 -3.698865 -0.222777 0.169477 0.317302 0.053130 0.511369 0.555629 -0.149995 0.508118 0.557001 -0.156049 -12.568406 -1.447527 2.637434 10.197542 3.163033 -2.584844 -0.000000 0.000000 -0.000000 -0.000000 0.000000 -0.000000 -0.000000 0.000000 -0.000000 1.604992 -11.385831 -9.553345 4.329750 -15.662795 -64.423027 -0.000005 -12.874972 -0.000018 1.693029 -1.937945 -8.457197 2.486426 8.732135 -25.419674 1.496298 3.911576 -41.853989 0.476273 2.315667 -23.241546 -0.000001 0.000000 -0.000001 0.699755 -6.020109 19.223955 19.074611 26.512464 -1.026322 3.271092 -0.981155 3.963637 0.000002 -0.000002 0.000000 0.460220 4.491399 -23.662349 0.883094 3.094848 -31.844196 0.339548 1.967241 -19.583710 -0.000000 -0.000001 -0.000004 3.090055 8.505090 -34.940362 1.098176 3.416397 -35.630262 0.533258 2.443976 -24.613772 -0.000001 0.000000 -0.000001 3.603262 12.761694 -45.581319 0.673748 2.729597 -27.725806 0.090002 1.024032 -10.045313 0.000000 0.000001 0.000002 2.087503 14.855921 10.815231 -4.515512 3.403575 66.314600 -0.000001 7.533709 0.000018 10.827174 0.054057 8.057263 -0.702550 -1.215804 21.259771 0.924244 -2.786664 36.691872 0.558024 -2.212361 28.309432 0.000001 0.000003 -0.000001 -13.495561 -11.552059 -5.371134 13.666570 -20.582676 -6.820324 3.162459 -4.141714 -22.215038 0.000003 -0.000003 -0.000003 0.246065 -3.262784 18.902303 0.589422 -2.269642 29.112650 0.172158 -1.255821 15.610698 0.000001 -0.000001 0.000002 -0.941528 -2.664831 38.529258 0.358954 -1.794606 22.620046 0.313729 -1.682000 21.129368 -0.000002 0.000001 0.000000 -2.260391 -1.124638 39.408160 0.612401 -2.310402 29.687605 0.130089 -1.094184 13.559641 0.000000 -0.000002 -0.000000 -11.914246 11.950278 10.344199 9.698807 5.169752 2.188671 -0.978554 0.394129 -9.773313 0.148942 0.000295 -0.168467 -0.000000 0.000000 -0.000000 -10.880143 -8.418142 -8.279685 4.801654 1.211648 -2.888470 2.214118 -0.180286 10.581049 -0.000059 0.000003 -0.000001 0.000000 -0.000000 -0.000000 
5.466246 199.357071 -4.927970 3.816401 -3.698865 -0.222777 0.169477 0.317302 0.053130 0.511369 0.555629 -0.149995 0.508118 0.557001 -0.156049 -12.568406 -1.447527 2.637434 10.197542 3.163033 -2.584844 -0.000000 0.000000 -0.000000 -0.000000 0.000000 -0.000000 -0.000000 0.000000 -0.000000 1.604992 -11.385831 -9.553345 4.329750 -15.662795 -64.423027 -0.000005 -12.874972 -0.000018 1.693029 -1.937945 -8.457197 2.486426 8.732135 -25.419674 1.496298 3.911576 -41.853989 0.476273 2.315667 -23.241546 -0.000001 0.000000 -0.000001 0.699755 -6.020109 19.223955 19.074611 26.512464 -1.026322 3.271092 -0.981155 3.963637 0.000002 -0.000002 0.000000 0.460220 4.491399 -23.662349 0.883094 3.094848 -31.844196 0.339548 1.967241 -19.583710 -0.000000 -0.000001 -0.000004 3.090055 8.505090 -34.940362 1.098176 3.416397 -35.630262 0.533258 2.443976 -24.613772 -0.000001 0.000000 -0.000001 3.603262 12.761694 -45.581319 0.673748 2.729597 -27.725806 0.090002 1.024032 -10.045313 0.000000 0.000001 0.000002 2.087503 14.855921 10.815231 -4.515512 3.403575 66.314600 -0.000001 7.533709 0.000018 10.827174 0.054057 8.057263 -0.702550 -1.215804 21.259771 0.924244 -2.786664 36.691872 0.558024 -2.212361 28.309432 0.000001 0.000003 -0.000001 -13.495561 -11.552059 -5.371134 13.666570 -20.582676 -6.820324 3.162459 -4.141714 -22.215038 0.000003 -0.000003 -0.000003 0.246065 -3.262784 18.902303 0.589422 -2.269642 29.112650 0.172158 -1.255821 15.610698 0.000001 -0.000001 0.000002 -0.941528 -2.664831 38.529258 0.358954 -1.794606 22.620046 0.313729 -1.682000 21.129368 -0.000002 0.000001 0.000000 -2.260391 -1.124638 39.408160 0.612401 -2.310402 29.687605 0.130089 -1.094184 13.559641 0.000000 -0.000002 -0.000000 -11.914246 11.950278 10.344199 9.698807 5.169752 2.188671 -0.978554 0.394129 -9.773313 0.148942 0.000295 -0.168467 -0.000000 0.000000 -0.000000 -10.880143 -8.418142 -8.279685 4.801654 1.211648 -2.888470 2.214118 -0.180286 10.581049 -0.000059 0.000003 -0.000001 0.000000 -0.000000 -0.000000 
